<svg width="97" height="68" viewBox="0 0 97 68" fill="none" xmlns="http://www.w3.org/2000/svg">
<path d="M20.1863 44.5557C22.4398 49.8783 20.7052 55.3669 16.7733 57.0316C12.8414 58.6963 7.69308 56.1217 5.43961 50.7991C3.18614 45.4765 4.92076 39.9878 8.85262 38.3232C12.7845 36.6585 17.9328 39.2331 20.1863 44.5557Z" stroke="#FFA861" stroke-width="1.57795"/>
<mask id="path-3-inside-1" fill="white">
<path fill-rule="evenodd" clip-rule="evenodd" d="M92.4518 29.5413C94.7961 35.0784 93.3368 40.9963 89.196 42.8069L89.1962 42.8074L37.3703 64.7492C37.3416 64.7619 37.3128 64.7743 37.2838 64.7866C33.0909 66.5618 27.781 63.4875 25.4239 57.9201C23.0796 52.3829 24.5389 46.465 28.6797 44.6544L28.6793 44.6534L80.5613 22.6878L80.5919 22.6748L80.6226 22.6619L80.6603 22.6459L80.6605 22.6462C84.8425 20.9332 90.1075 24.0041 92.4518 29.5413Z"/>
</mask>
<path d="M89.196 42.8069L88.5638 41.3611L87.1349 41.986L87.7429 43.4221L89.196 42.8069ZM89.1962 42.8074L89.8114 44.2605L91.2645 43.6453L90.6493 42.1922L89.1962 42.8074ZM37.3703 64.7492L36.7551 63.2961L36.7443 63.3007L36.7336 63.3054L37.3703 64.7492ZM28.6797 44.6544L29.3119 46.1002L30.7408 45.4754L30.1328 44.0392L28.6797 44.6544ZM28.6793 44.6534L28.0641 43.2003L26.611 43.8155L27.2262 45.2686L28.6793 44.6534ZM80.5613 22.6878L81.1765 24.1409L81.1803 24.1393L80.5613 22.6878ZM80.5919 22.6748L79.9805 21.2201L79.9729 21.2233L80.5919 22.6748ZM80.6226 22.6619L81.234 24.1166L81.2378 24.115L80.6226 22.6619ZM80.6603 22.6459L82.1134 22.0307L81.4982 20.5776L80.0451 21.1928L80.6603 22.6459ZM80.6605 22.6462L79.2074 23.2614L79.8154 24.6976L81.2586 24.1064L80.6605 22.6462ZM89.8282 44.2527C92.4484 43.1069 94.1102 40.7065 94.7881 37.9482C95.4661 35.19 95.1973 31.9787 93.9049 28.9261L90.9987 30.1565C92.0506 32.641 92.2243 35.1572 91.7235 37.1949C91.2227 39.2325 90.0844 40.6963 88.5638 41.3611L89.8282 44.2527ZM90.6493 42.1922L90.6491 42.1917L87.7429 43.4221L87.7431 43.4226L90.6493 42.1922ZM37.9855 66.2023L89.8114 44.2605L88.581 41.3543L36.7551 63.2961L37.9855 66.2023ZM36.7336 63.3054C36.712 63.3149 36.6903 63.3243 36.6686 63.3335L37.899 66.2397C37.9352 66.2243 37.9712 66.2088 38.007 66.193L36.7336 63.3054ZM36.6686 63.3335C35.1295 63.9851 33.2781 63.7962 31.4561 62.7412C29.6332 61.6859 27.9347 59.8032 26.877 57.3049L23.9708 58.5353C25.2702 61.6044 27.4052 64.0426 29.8748 65.4724C32.3452 66.9027 35.2452 67.3632 37.899 66.2397L36.6686 63.3335ZM26.877 57.3049C25.8251 54.8204 25.6514 52.3042 26.1522 50.2664C26.6531 48.2289 27.7914 46.7651 29.3119 46.1002L28.0476 43.2087C25.4273 44.3544 23.7655 46.7549 23.0876 49.5132C22.4096 52.2713 22.6784 55.4827 23.9708 58.5353L26.877 57.3049ZM27.2262 45.2686L27.2266 45.2696L30.1328 44.0392L30.1324 44.0382L27.2262 45.2686ZM79.9461 21.2348L28.0641 43.2003L29.2945 46.1065L81.1765 24.1409L79.9461 21.2348ZM79.9729 21.2233L79.9423 21.2364L81.1803 24.1393L81.2109 24.1263L79.9729 21.2233ZM80.0112 21.2072L79.9805 21.2201L81.2033 24.1295L81.234 24.1166L80.0112 21.2072ZM80.0451 21.1928L80.0074 21.2088L81.2378 24.115L81.2755 24.099L80.0451 21.1928ZM82.1135 22.031L82.1134 22.0307L79.2073 23.2611L79.2074 23.2614L82.1135 22.031ZM93.9049 28.9261C92.6125 25.8735 90.4937 23.4454 88.0414 22.0125C85.5889 20.5795 82.7087 20.102 80.0623 21.186L81.2586 24.1064C82.7943 23.4774 84.6376 23.6788 86.4492 24.7373C88.261 25.796 89.9468 27.6719 90.9987 30.1565L93.9049 28.9261Z" fill="#FFA861" mask="url(#path-3-inside-1)"/>
<rect x="16.683" y="28.1805" width="61.1545" height="21.894" transform="rotate(-22.9466 16.683 28.1805)" fill="#FFA053"/>
<ellipse cx="21.0252" cy="38.2303" rx="8.93178" ry="10.947" transform="rotate(-22.9466 21.0252 38.2303)" fill="#FFA053"/>
<ellipse cx="21.0252" cy="38.2303" rx="8.93178" ry="10.947" transform="rotate(-22.9466 21.0252 38.2303)" fill="url(#paint0_linear)" fill-opacity="0.2"/>
<ellipse cx="77.1921" cy="14.4501" rx="8.93178" ry="10.947" transform="rotate(-22.9466 77.1921 14.4501)" fill="#FFA053"/>
<path d="M33.6806 27.2191L75.8906 10.2562M54.7419 27.6882L78.3801 17.9464" stroke="#E5E5E5" stroke-opacity="0.2" stroke-width="0.59173"/>
<path d="M33.6806 27.2191L75.8906 10.2562M54.7419 27.6882L78.3801 17.9464" stroke="#E5E5E5" stroke-opacity="0.2" stroke-width="0.59173"/>
<path d="M87.896 38.0782L45.902 55.5692M66.8305 37.8733L43.3163 47.9108" stroke="#E5E5E5" stroke-opacity="0.1" stroke-width="0.59173"/>
<path d="M87.896 38.0782L45.902 55.5692M66.8305 37.8733L43.3163 47.9108" stroke="#E5E5E5" stroke-opacity="0.05" stroke-width="0.59173"/>
<path d="M18.986 55.3262L16.4218 57.8904L24.9033 54.8331V51.4799L26.284 47.4365L20.9584 48.5213V49.8034L20.4653 52.3675L18.986 55.3262Z" fill="#FFA861"/>
<defs>
<linearGradient id="paint0_linear" x1="21.0252" y1="27.2833" x2="21.0252" y2="49.1773" gradientUnits="userSpaceOnUse">
<stop stop-color="white"/>
<stop offset="1" stop-color="white" stop-opacity="0"/>
</linearGradient>
</defs>
</svg>
