<svg width="384" height="164" viewBox="0 0 384 164" fill="none" xmlns="http://www.w3.org/2000/svg">
<path d="M47.1562 59.4219H20.1562V77.7031H51.8438V89H6.09375V20.75H51.75V32.1406H20.1562V48.4062H47.1562V59.4219ZM85.3594 64.0156H74.1562V89H60.0938V20.75H85.4531C93.5156 20.75 99.7344 22.5469 104.109 26.1406C108.484 29.7344 110.672 34.8125 110.672 41.375C110.672 46.0312 109.656 49.9219 107.625 53.0469C105.625 56.1406 102.578 58.6094 98.4844 60.4531L113.25 88.3438V89H98.1562L85.3594 64.0156ZM74.1562 52.625H85.5C89.0312 52.625 91.7656 51.7344 93.7031 49.9531C95.6406 48.1406 96.6094 45.6562 96.6094 42.5C96.6094 39.2812 95.6875 36.75 93.8438 34.9062C92.0312 33.0625 89.2344 32.1406 85.4531 32.1406H74.1562V52.625ZM136.359 89H122.297V20.75H136.359V89ZM184.828 71.0938C184.828 68.4375 183.891 66.4062 182.016 65C180.141 63.5625 176.766 62.0625 171.891 60.5C167.016 58.9062 163.156 57.3438 160.312 55.8125C152.562 51.625 148.688 45.9844 148.688 38.8906C148.688 35.2031 149.719 31.9219 151.781 29.0469C153.875 26.1406 156.859 23.875 160.734 22.25C164.641 20.625 169.016 19.8125 173.859 19.8125C178.734 19.8125 183.078 20.7031 186.891 22.4844C190.703 24.2344 193.656 26.7187 195.75 29.9375C197.875 33.1562 198.938 36.8125 198.938 40.9062H184.875C184.875 37.7812 183.891 35.3594 181.922 33.6406C179.953 31.8906 177.188 31.0156 173.625 31.0156C170.188 31.0156 167.516 31.75 165.609 33.2188C163.703 34.6562 162.75 36.5625 162.75 38.9375C162.75 41.1562 163.859 43.0156 166.078 44.5156C168.328 46.0156 171.625 47.4219 175.969 48.7344C183.969 51.1406 189.797 54.125 193.453 57.6875C197.109 61.25 198.938 65.6875 198.938 71C198.938 76.9062 196.703 81.5469 192.234 84.9219C187.766 88.2656 181.75 89.9375 174.188 89.9375C168.938 89.9375 164.156 88.9844 159.844 87.0781C155.531 85.1406 152.234 82.5 149.953 79.1562C147.703 75.8125 146.578 71.9375 146.578 67.5312H160.688C160.688 75.0625 165.188 78.8281 174.188 78.8281C177.531 78.8281 180.141 78.1562 182.016 76.8125C183.891 75.4375 184.828 73.5312 184.828 71.0938Z" fill="#827396"/>
<path d="M47.1562 59.4219H20.1562V77.7031H51.8438V89H6.09375V20.75H51.75V32.1406H20.1562V48.4062H47.1562V59.4219ZM85.3594 64.0156H74.1562V89H60.0938V20.75H85.4531C93.5156 20.75 99.7344 22.5469 104.109 26.1406C108.484 29.7344 110.672 34.8125 110.672 41.375C110.672 46.0312 109.656 49.9219 107.625 53.0469C105.625 56.1406 102.578 58.6094 98.4844 60.4531L113.25 88.3438V89H98.1562L85.3594 64.0156ZM74.1562 52.625H85.5C89.0312 52.625 91.7656 51.7344 93.7031 49.9531C95.6406 48.1406 96.6094 45.6562 96.6094 42.5C96.6094 39.2812 95.6875 36.75 93.8438 34.9062C92.0312 33.0625 89.2344 32.1406 85.4531 32.1406H74.1562V52.625ZM136.359 89H122.297V20.75H136.359V89ZM184.828 71.0938C184.828 68.4375 183.891 66.4062 182.016 65C180.141 63.5625 176.766 62.0625 171.891 60.5C167.016 58.9062 163.156 57.3438 160.312 55.8125C152.562 51.625 148.688 45.9844 148.688 38.8906C148.688 35.2031 149.719 31.9219 151.781 29.0469C153.875 26.1406 156.859 23.875 160.734 22.25C164.641 20.625 169.016 19.8125 173.859 19.8125C178.734 19.8125 183.078 20.7031 186.891 22.4844C190.703 24.2344 193.656 26.7187 195.75 29.9375C197.875 33.1562 198.938 36.8125 198.938 40.9062H184.875C184.875 37.7812 183.891 35.3594 181.922 33.6406C179.953 31.8906 177.188 31.0156 173.625 31.0156C170.188 31.0156 167.516 31.75 165.609 33.2188C163.703 34.6562 162.75 36.5625 162.75 38.9375C162.75 41.1562 163.859 43.0156 166.078 44.5156C168.328 46.0156 171.625 47.4219 175.969 48.7344C183.969 51.1406 189.797 54.125 193.453 57.6875C197.109 61.25 198.938 65.6875 198.938 71C198.938 76.9062 196.703 81.5469 192.234 84.9219C187.766 88.2656 181.75 89.9375 174.188 89.9375C168.938 89.9375 164.156 88.9844 159.844 87.0781C155.531 85.1406 152.234 82.5 149.953 79.1562C147.703 75.8125 146.578 71.9375 146.578 67.5312H160.688C160.688 75.0625 165.188 78.8281 174.188 78.8281C177.531 78.8281 180.141 78.1562 182.016 76.8125C183.891 75.4375 184.828 73.5312 184.828 71.0938Z" fill="url(#paint0_linear)"/>
<path d="M45.3125 110.094H31.375V148H22V110.094H8.25V102.5H45.3125V110.094ZM58.9062 117.875C61.3021 115 64.3125 113.562 67.9375 113.562C75.2708 113.562 78.9896 117.823 79.0938 126.344V148H70.0625V126.594C70.0625 124.656 69.6458 123.229 68.8125 122.312C67.9792 121.375 66.5938 120.906 64.6562 120.906C62.0104 120.906 60.0938 121.927 58.9062 123.969V148H49.875V100H58.9062V117.875ZM101.469 148.625C96.5104 148.625 92.4688 147.104 89.3438 144.062C86.2396 141.021 84.6875 136.969 84.6875 131.906V131.031C84.6875 127.635 85.3438 124.604 86.6562 121.938C87.9688 119.25 89.8229 117.188 92.2188 115.75C94.6354 114.292 97.3854 113.562 100.469 113.562C105.094 113.562 108.729 115.021 111.375 117.938C114.042 120.854 115.375 124.99 115.375 130.344V134.031H93.8438C94.1354 136.24 95.0104 138.01 96.4688 139.344C97.9479 140.677 99.8125 141.344 102.062 141.344C105.542 141.344 108.26 140.083 110.219 137.562L114.656 142.531C113.302 144.448 111.469 145.948 109.156 147.031C106.844 148.094 104.281 148.625 101.469 148.625ZM100.438 120.875C98.6458 120.875 97.1875 121.479 96.0625 122.688C94.9583 123.896 94.25 125.625 93.9375 127.875H106.5V127.156C106.458 125.156 105.917 123.615 104.875 122.531C103.833 121.427 102.354 120.875 100.438 120.875ZM173.062 142.25C171.375 144.271 168.99 145.844 165.906 146.969C162.823 148.073 159.406 148.625 155.656 148.625C151.719 148.625 148.26 147.771 145.281 146.062C142.323 144.333 140.031 141.833 138.406 138.562C136.802 135.292 135.979 131.448 135.938 127.031V123.938C135.938 119.396 136.698 115.469 138.219 112.156C139.76 108.823 141.969 106.281 144.844 104.531C147.74 102.76 151.125 101.875 155 101.875C160.396 101.875 164.615 103.167 167.656 105.75C170.698 108.312 172.5 112.052 173.062 116.969H163.938C163.521 114.365 162.594 112.458 161.156 111.25C159.74 110.042 157.781 109.438 155.281 109.438C152.094 109.438 149.667 110.635 148 113.031C146.333 115.427 145.49 118.99 145.469 123.719V126.625C145.469 131.396 146.375 135 148.188 137.438C150 139.875 152.656 141.094 156.156 141.094C159.677 141.094 162.188 140.344 163.688 138.844V131H155.156V124.094H173.062V142.25ZM199.688 148C199.271 147.188 198.969 146.177 198.781 144.969C196.594 147.406 193.75 148.625 190.25 148.625C186.938 148.625 184.188 147.667 182 145.75C179.833 143.833 178.75 141.417 178.75 138.5C178.75 134.917 180.073 132.167 182.719 130.25C185.385 128.333 189.229 127.365 194.25 127.344H198.406V125.406C198.406 123.844 198 122.594 197.188 121.656C196.396 120.719 195.135 120.25 193.406 120.25C191.885 120.25 190.688 120.615 189.812 121.344C188.958 122.073 188.531 123.073 188.531 124.344H179.5C179.5 122.385 180.104 120.573 181.312 118.906C182.521 117.24 184.229 115.938 186.438 115C188.646 114.042 191.125 113.562 193.875 113.562C198.042 113.562 201.344 114.615 203.781 116.719C206.24 118.802 207.469 121.74 207.469 125.531V140.188C207.49 143.396 207.938 145.823 208.812 147.469V148H199.688ZM192.219 141.719C193.552 141.719 194.781 141.427 195.906 140.844C197.031 140.24 197.865 139.438 198.406 138.438V132.625H195.031C190.51 132.625 188.104 134.188 187.812 137.312L187.781 137.844C187.781 138.969 188.177 139.896 188.969 140.625C189.76 141.354 190.844 141.719 192.219 141.719ZM225.219 105.875V114.188H231V120.812H225.219V137.688C225.219 138.938 225.458 139.833 225.938 140.375C226.417 140.917 227.333 141.188 228.688 141.188C229.688 141.188 230.573 141.115 231.344 140.969V147.812C229.573 148.354 227.75 148.625 225.875 148.625C219.542 148.625 216.312 145.427 216.188 139.031V120.812H211.25V114.188H216.188V105.875H225.219ZM244.844 117.875C247.24 115 250.25 113.562 253.875 113.562C261.208 113.562 264.927 117.823 265.031 126.344V148H256V126.594C256 124.656 255.583 123.229 254.75 122.312C253.917 121.375 252.531 120.906 250.594 120.906C247.948 120.906 246.031 121.927 244.844 123.969V148H235.812V100H244.844V117.875ZM287.406 148.625C282.448 148.625 278.406 147.104 275.281 144.062C272.177 141.021 270.625 136.969 270.625 131.906V131.031C270.625 127.635 271.281 124.604 272.594 121.938C273.906 119.25 275.76 117.188 278.156 115.75C280.573 114.292 283.323 113.562 286.406 113.562C291.031 113.562 294.667 115.021 297.312 117.938C299.979 120.854 301.312 124.99 301.312 130.344V134.031H279.781C280.073 136.24 280.948 138.01 282.406 139.344C283.885 140.677 285.75 141.344 288 141.344C291.479 141.344 294.198 140.083 296.156 137.562L300.594 142.531C299.24 144.448 297.406 145.948 295.094 147.031C292.781 148.094 290.219 148.625 287.406 148.625ZM286.375 120.875C284.583 120.875 283.125 121.479 282 122.688C280.896 123.896 280.188 125.625 279.875 127.875H292.438V127.156C292.396 125.156 291.854 123.615 290.812 122.531C289.771 121.427 288.292 120.875 286.375 120.875ZM325.469 122.656C324.24 122.49 323.156 122.406 322.219 122.406C318.802 122.406 316.562 123.562 315.5 125.875V148H306.469V114.188H315L315.25 118.219C317.062 115.115 319.573 113.562 322.781 113.562C323.781 113.562 324.719 113.698 325.594 113.969L325.469 122.656ZM344.781 148.625C339.823 148.625 335.781 147.104 332.656 144.062C329.552 141.021 328 136.969 328 131.906V131.031C328 127.635 328.656 124.604 329.969 121.938C331.281 119.25 333.135 117.188 335.531 115.75C337.948 114.292 340.698 113.562 343.781 113.562C348.406 113.562 352.042 115.021 354.688 117.938C357.354 120.854 358.688 124.99 358.688 130.344V134.031H337.156C337.448 136.24 338.323 138.01 339.781 139.344C341.26 140.677 343.125 141.344 345.375 141.344C348.854 141.344 351.573 140.083 353.531 137.562L357.969 142.531C356.615 144.448 354.781 145.948 352.469 147.031C350.156 148.094 347.594 148.625 344.781 148.625ZM343.75 120.875C341.958 120.875 340.5 121.479 339.375 122.688C338.271 123.896 337.562 125.625 337.25 127.875H349.812V127.156C349.771 125.156 349.229 123.615 348.188 122.531C347.146 121.427 345.667 120.875 343.75 120.875ZM382.844 122.656C381.615 122.49 380.531 122.406 379.594 122.406C376.177 122.406 373.938 123.562 372.875 125.875V148H363.844V114.188H372.375L372.625 118.219C374.438 115.115 376.948 113.562 380.156 113.562C381.156 113.562 382.094 113.698 382.969 113.969L382.844 122.656Z" fill="white"/>
<path d="M45.3125 110.094H31.375V148H22V110.094H8.25V102.5H45.3125V110.094ZM58.9062 117.875C61.3021 115 64.3125 113.562 67.9375 113.562C75.2708 113.562 78.9896 117.823 79.0938 126.344V148H70.0625V126.594C70.0625 124.656 69.6458 123.229 68.8125 122.312C67.9792 121.375 66.5938 120.906 64.6562 120.906C62.0104 120.906 60.0938 121.927 58.9062 123.969V148H49.875V100H58.9062V117.875ZM101.469 148.625C96.5104 148.625 92.4688 147.104 89.3438 144.062C86.2396 141.021 84.6875 136.969 84.6875 131.906V131.031C84.6875 127.635 85.3438 124.604 86.6562 121.938C87.9688 119.25 89.8229 117.188 92.2188 115.75C94.6354 114.292 97.3854 113.562 100.469 113.562C105.094 113.562 108.729 115.021 111.375 117.938C114.042 120.854 115.375 124.99 115.375 130.344V134.031H93.8438C94.1354 136.24 95.0104 138.01 96.4688 139.344C97.9479 140.677 99.8125 141.344 102.062 141.344C105.542 141.344 108.26 140.083 110.219 137.562L114.656 142.531C113.302 144.448 111.469 145.948 109.156 147.031C106.844 148.094 104.281 148.625 101.469 148.625ZM100.438 120.875C98.6458 120.875 97.1875 121.479 96.0625 122.688C94.9583 123.896 94.25 125.625 93.9375 127.875H106.5V127.156C106.458 125.156 105.917 123.615 104.875 122.531C103.833 121.427 102.354 120.875 100.438 120.875ZM173.062 142.25C171.375 144.271 168.99 145.844 165.906 146.969C162.823 148.073 159.406 148.625 155.656 148.625C151.719 148.625 148.26 147.771 145.281 146.062C142.323 144.333 140.031 141.833 138.406 138.562C136.802 135.292 135.979 131.448 135.938 127.031V123.938C135.938 119.396 136.698 115.469 138.219 112.156C139.76 108.823 141.969 106.281 144.844 104.531C147.74 102.76 151.125 101.875 155 101.875C160.396 101.875 164.615 103.167 167.656 105.75C170.698 108.312 172.5 112.052 173.062 116.969H163.938C163.521 114.365 162.594 112.458 161.156 111.25C159.74 110.042 157.781 109.438 155.281 109.438C152.094 109.438 149.667 110.635 148 113.031C146.333 115.427 145.49 118.99 145.469 123.719V126.625C145.469 131.396 146.375 135 148.188 137.438C150 139.875 152.656 141.094 156.156 141.094C159.677 141.094 162.188 140.344 163.688 138.844V131H155.156V124.094H173.062V142.25ZM199.688 148C199.271 147.188 198.969 146.177 198.781 144.969C196.594 147.406 193.75 148.625 190.25 148.625C186.938 148.625 184.188 147.667 182 145.75C179.833 143.833 178.75 141.417 178.75 138.5C178.75 134.917 180.073 132.167 182.719 130.25C185.385 128.333 189.229 127.365 194.25 127.344H198.406V125.406C198.406 123.844 198 122.594 197.188 121.656C196.396 120.719 195.135 120.25 193.406 120.25C191.885 120.25 190.688 120.615 189.812 121.344C188.958 122.073 188.531 123.073 188.531 124.344H179.5C179.5 122.385 180.104 120.573 181.312 118.906C182.521 117.24 184.229 115.938 186.438 115C188.646 114.042 191.125 113.562 193.875 113.562C198.042 113.562 201.344 114.615 203.781 116.719C206.24 118.802 207.469 121.74 207.469 125.531V140.188C207.49 143.396 207.938 145.823 208.812 147.469V148H199.688ZM192.219 141.719C193.552 141.719 194.781 141.427 195.906 140.844C197.031 140.24 197.865 139.438 198.406 138.438V132.625H195.031C190.51 132.625 188.104 134.188 187.812 137.312L187.781 137.844C187.781 138.969 188.177 139.896 188.969 140.625C189.76 141.354 190.844 141.719 192.219 141.719ZM225.219 105.875V114.188H231V120.812H225.219V137.688C225.219 138.938 225.458 139.833 225.938 140.375C226.417 140.917 227.333 141.188 228.688 141.188C229.688 141.188 230.573 141.115 231.344 140.969V147.812C229.573 148.354 227.75 148.625 225.875 148.625C219.542 148.625 216.312 145.427 216.188 139.031V120.812H211.25V114.188H216.188V105.875H225.219ZM244.844 117.875C247.24 115 250.25 113.562 253.875 113.562C261.208 113.562 264.927 117.823 265.031 126.344V148H256V126.594C256 124.656 255.583 123.229 254.75 122.312C253.917 121.375 252.531 120.906 250.594 120.906C247.948 120.906 246.031 121.927 244.844 123.969V148H235.812V100H244.844V117.875ZM287.406 148.625C282.448 148.625 278.406 147.104 275.281 144.062C272.177 141.021 270.625 136.969 270.625 131.906V131.031C270.625 127.635 271.281 124.604 272.594 121.938C273.906 119.25 275.76 117.188 278.156 115.75C280.573 114.292 283.323 113.562 286.406 113.562C291.031 113.562 294.667 115.021 297.312 117.938C299.979 120.854 301.312 124.99 301.312 130.344V134.031H279.781C280.073 136.24 280.948 138.01 282.406 139.344C283.885 140.677 285.75 141.344 288 141.344C291.479 141.344 294.198 140.083 296.156 137.562L300.594 142.531C299.24 144.448 297.406 145.948 295.094 147.031C292.781 148.094 290.219 148.625 287.406 148.625ZM286.375 120.875C284.583 120.875 283.125 121.479 282 122.688C280.896 123.896 280.188 125.625 279.875 127.875H292.438V127.156C292.396 125.156 291.854 123.615 290.812 122.531C289.771 121.427 288.292 120.875 286.375 120.875ZM325.469 122.656C324.24 122.49 323.156 122.406 322.219 122.406C318.802 122.406 316.562 123.562 315.5 125.875V148H306.469V114.188H315L315.25 118.219C317.062 115.115 319.573 113.562 322.781 113.562C323.781 113.562 324.719 113.698 325.594 113.969L325.469 122.656ZM344.781 148.625C339.823 148.625 335.781 147.104 332.656 144.062C329.552 141.021 328 136.969 328 131.906V131.031C328 127.635 328.656 124.604 329.969 121.938C331.281 119.25 333.135 117.188 335.531 115.75C337.948 114.292 340.698 113.562 343.781 113.562C348.406 113.562 352.042 115.021 354.688 117.938C357.354 120.854 358.688 124.99 358.688 130.344V134.031H337.156C337.448 136.24 338.323 138.01 339.781 139.344C341.26 140.677 343.125 141.344 345.375 141.344C348.854 141.344 351.573 140.083 353.531 137.562L357.969 142.531C356.615 144.448 354.781 145.948 352.469 147.031C350.156 148.094 347.594 148.625 344.781 148.625ZM343.75 120.875C341.958 120.875 340.5 121.479 339.375 122.688C338.271 123.896 337.562 125.625 337.25 127.875H349.812V127.156C349.771 125.156 349.229 123.615 348.188 122.531C347.146 121.427 345.667 120.875 343.75 120.875ZM382.844 122.656C381.615 122.49 380.531 122.406 379.594 122.406C376.177 122.406 373.938 123.562 372.875 125.875V148H363.844V114.188H372.375L372.625 118.219C374.438 115.115 376.948 113.562 380.156 113.562C381.156 113.562 382.094 113.698 382.969 113.969L382.844 122.656Z" fill="url(#paint1_linear)"/>
<ellipse cx="247.597" cy="36.5645" rx="8.32258" ry="14.5645" fill="#23BEE0"/>
<ellipse cx="247.597" cy="36.5645" rx="8.32258" ry="14.5645" fill="url(#paint2_linear)"/>
<ellipse cx="247.597" cy="74.0161" rx="8.32258" ry="14.5645" fill="#23BEE0"/>
<ellipse cx="247.597" cy="74.0161" rx="8.32258" ry="14.5645" fill="url(#paint3_linear)"/>
<ellipse cx="264.935" cy="55.2903" rx="8.32258" ry="14.5645" transform="rotate(90 264.935 55.2903)" fill="#23BEE0"/>
<ellipse cx="264.935" cy="55.2903" rx="8.32258" ry="14.5645" transform="rotate(90 264.935 55.2903)" fill="url(#paint4_linear)"/>
<ellipse cx="229.565" cy="55.2903" rx="8.32258" ry="14.5645" transform="rotate(90 229.565 55.2903)" fill="#23BEE0"/>
<ellipse cx="229.565" cy="55.2903" rx="8.32258" ry="14.5645" transform="rotate(90 229.565 55.2903)" fill="url(#paint5_linear)"/>
<ellipse cx="234.903" cy="43.5017" rx="10.8623" ry="12.1411" transform="rotate(135 234.903 43.5017)" fill="#23BEE0"/>
<ellipse cx="234.903" cy="43.5017" rx="10.8623" ry="12.1411" transform="rotate(135 234.903 43.5017)" fill="url(#paint6_linear)"/>
<ellipse cx="261.153" cy="67.0367" rx="10.8623" ry="12.1411" transform="rotate(135 261.153 67.0367)" fill="#23BEE0"/>
<ellipse cx="261.153" cy="67.0367" rx="10.8623" ry="12.1411" transform="rotate(135 261.153 67.0367)" fill="url(#paint7_linear)"/>
<ellipse cx="261.154" cy="42.5965" rx="10.8623" ry="12.1411" transform="rotate(45 261.154 42.5965)" fill="#23BEE0"/>
<ellipse cx="261.154" cy="42.5965" rx="10.8623" ry="12.1411" transform="rotate(45 261.154 42.5965)" fill="url(#paint8_linear)"/>
<path d="M254.786 50.0126C255.733 47.4414 259.089 41.6494 264.935 39.0511" stroke="#2DAAC6"/>
<ellipse cx="233.998" cy="67.9419" rx="10.8623" ry="12.1411" transform="rotate(45 233.998 67.9419)" fill="#23BEE0"/>
<ellipse cx="233.998" cy="67.9419" rx="10.8623" ry="12.1411" transform="rotate(45 233.998 67.9419)" fill="url(#paint9_linear)"/>
<circle cx="247.597" cy="55.2903" r="8.32258" fill="#23BEE0"/>
<circle cx="247.597" cy="55.2903" r="8.32258" fill="url(#paint10_linear)"/>
<path d="M247.639 47.1707C247.639 46.3588 246.827 37.4272 248.857 30.9315" stroke="#2DAFCB"/>
<path d="M261.688 54.8843C262.499 54.8843 268.183 54.0724 275.897 56.5083" stroke="#2DB4D2"/>
<path d="M254.786 59.3501C257.086 61.38 261.85 66.8201 262.5 72.3415" stroke="#2DBAD9"/>
<path d="M240.983 60.974C237.735 63.2746 230.752 69.256 228.803 74.7773" stroke="#2DC0E0"/>
<path d="M247.478 63.8159C246.937 66.3871 246.423 74.209 248.696 84.9268" stroke="#2DB6D4"/>
<path d="M240.17 52.4485C237.734 50.6892 232.7 45.3844 232.051 38.2392" stroke="#2DA2BC"/>
<path d="M221.09 56.5083C221.496 56.5083 228.397 56.1023 239.359 55.2903" stroke="#2DABC7"/>
<defs>
<linearGradient id="paint0_linear" x1="101.5" y1="0" x2="101.5" y2="113" gradientUnits="userSpaceOnUse">
<stop stop-color="#847195"/>
<stop offset="1" stop-color="#4D3C5B"/>
</linearGradient>
<linearGradient id="paint1_linear" x1="195.5" y1="117" x2="195.5" y2="164" gradientUnits="userSpaceOnUse">
<stop stop-color="white"/>
<stop offset="1" stop-color="#C8C8C8"/>
</linearGradient>
<linearGradient id="paint2_linear" x1="255.226" y1="34.1371" x2="240.872" y2="37.6839" gradientUnits="userSpaceOnUse">
<stop stop-color="#4ED9F8"/>
<stop offset="0.213542" stop-color="#2DC3E3"/>
<stop offset="1" stop-color="#2DA1BA"/>
</linearGradient>
<linearGradient id="paint3_linear" x1="255.226" y1="71.5887" x2="240.872" y2="75.1355" gradientUnits="userSpaceOnUse">
<stop stop-color="#4ED9F8"/>
<stop offset="0.213542" stop-color="#2DC3E3"/>
<stop offset="1" stop-color="#2DA1BA"/>
</linearGradient>
<linearGradient id="paint4_linear" x1="272.565" y1="52.8629" x2="258.211" y2="56.4097" gradientUnits="userSpaceOnUse">
<stop stop-color="#4ED9F8"/>
<stop offset="0.213542" stop-color="#2DC3E3"/>
<stop offset="1" stop-color="#2DA1BA"/>
</linearGradient>
<linearGradient id="paint5_linear" x1="237.194" y1="52.8629" x2="222.84" y2="56.4097" gradientUnits="userSpaceOnUse">
<stop stop-color="#4ED9F8"/>
<stop offset="0.213542" stop-color="#2DC3E3"/>
<stop offset="1" stop-color="#2DA1BA"/>
</linearGradient>
<linearGradient id="paint6_linear" x1="244.86" y1="41.4782" x2="227.571" y2="48.1673" gradientUnits="userSpaceOnUse">
<stop stop-color="#4ED9F8"/>
<stop offset="0.213542" stop-color="#2DC3E3"/>
<stop offset="1" stop-color="#2DA1BA"/>
</linearGradient>
<linearGradient id="paint7_linear" x1="271.11" y1="65.0132" x2="253.821" y2="71.7023" gradientUnits="userSpaceOnUse">
<stop stop-color="#4ED9F8"/>
<stop offset="0.213542" stop-color="#2DC3E3"/>
<stop offset="1" stop-color="#2DA1BA"/>
</linearGradient>
<linearGradient id="paint8_linear" x1="271.111" y1="40.573" x2="253.821" y2="47.2621" gradientUnits="userSpaceOnUse">
<stop stop-color="#4ED9F8"/>
<stop offset="0.213542" stop-color="#2DC3E3"/>
<stop offset="1" stop-color="#2DA1BA"/>
</linearGradient>
<linearGradient id="paint9_linear" x1="243.955" y1="65.9183" x2="226.665" y2="72.6074" gradientUnits="userSpaceOnUse">
<stop stop-color="#4ED9F8"/>
<stop offset="0.213542" stop-color="#2DC3E3"/>
<stop offset="1" stop-color="#2DA1BA"/>
</linearGradient>
<linearGradient id="paint10_linear" x1="255.226" y1="53.9032" x2="242.395" y2="59.4516" gradientUnits="userSpaceOnUse">
<stop stop-color="#4ED9F8"/>
<stop offset="0.213542" stop-color="#2DC3E3"/>
<stop offset="1" stop-color="#2DA1BA"/>
</linearGradient>
</defs>
</svg>
