<svg width="362" height="464" viewBox="0 0 362 464" fill="none" xmlns="http://www.w3.org/2000/svg">
<path d="M284.453 0C220.133 0 196.457 60.6667 192.658 91H212.283C217.348 36.2727 262.296 5.09091 295.215 18.4545C311.922 25.2365 317.373 26.7273 321.171 18.4545C324.969 10.1818 305.977 0 284.453 0Z" fill="#49CBB0"/>
<path fill-rule="evenodd" clip-rule="evenodd" d="M106.982 107.001C64.3347 106.812 29.654 141.231 29.5207 183.879L29.0004 350.435C28.8671 393.083 63.3319 427.809 105.98 427.999C122.722 428.073 138.237 422.813 150.916 413.815C158.152 422.56 167.009 429.964 177.224 435.338C216.239 455.859 260.284 438.987 275.603 397.651L328.953 253.688C344.271 212.352 325.061 162.207 286.047 141.685C247.032 121.163 202.987 138.036 187.668 179.372L183.946 189.415L183.962 184.564C184.095 141.916 149.63 107.19 106.982 107.001Z" fill="#922A3A"/>
<path d="M97.1937 162.684C103.005 110.487 152.336 74.5146 203.81 84.9368V84.9368C255.083 95.3181 286.533 147.304 271.932 197.538L214.944 393.597C204.222 430.486 166.369 452.406 129.038 443.344V443.344C93.916 434.819 70.6005 401.523 74.5999 365.603L97.1937 162.684Z" fill="#BB3F52"/>
<path d="M97.1937 162.684C103.005 110.487 152.336 74.5146 203.81 84.9368V84.9368C255.083 95.3181 286.533 147.304 271.932 197.538L214.944 393.597C204.222 430.486 166.369 452.406 129.038 443.344V443.344C93.916 434.819 70.6005 401.523 74.5999 365.603L97.1937 162.684Z" fill="url(#paint0_linear)" fill-opacity="0.5"/>
<defs>
<linearGradient id="paint0_linear" x1="203.533" y1="84.8806" x2="131.1" y2="442.622" gradientUnits="userSpaceOnUse">
<stop stop-color="white" stop-opacity="0.28"/>
<stop offset="1" stop-color="white" stop-opacity="0"/>
</linearGradient>
</defs>
</svg>
